# xmcd
#
# Track frame offsets:
#	150
#	16623
#	34895
#	55069
#	66417
#
# Disc length: 1007 seconds
#
# Revision: 0
# Processed by: cddbd v1.5.1PL0 Copyright (c) Steve Scherf et al.
# Submitted via: dBpowerAMP V4.0
#
DISCID=3903ed05
DTITLE=Supperbell Roundup - Supperbell Roundup
DYEAR=1997
DGENRE=Bluegrass
TTITLE0=this town
TTITLE1=meet me by the river
TTITLE2=matchbook sorrows
TTITLE3=never been home
TTITLE4=trying to sneak me out
EXTD=found in the bargin bin at record store.  pretty good local solo bluegrass - banjo music
EXTT0=
EXTT1=
EXTT2=
EXTT3=
EXTT4=
PLAYORDER=
